<?xml version="1.0" encoding="UTF-8"?>
<svg xmlns="http://www.w3.org/2000/svg" xmlns:xlink="http://www.w3.org/1999/xlink" width="45pt" height="45pt" viewBox="0 0 45 45" version="1.1">
<g id="surface1">
<path style=" stroke:none;fill-rule:evenodd;fill:rgb(0%,0%,0%);fill-opacity:1;" d="M 16.800781 7 C 16.800781 4.601562 13.199219 4.601562 13.199219 7 C 13.199219 9.398438 16.800781 9.398438 16.800781 7 Z M 16.800781 7 "/>
<path style=" stroke:none;fill-rule:evenodd;fill:rgb(0%,0%,0%);fill-opacity:1;" d="M 8.800781 15 C 8.800781 12.601562 5.199219 12.601562 5.199219 15 C 5.199219 17.398438 8.800781 17.398438 8.800781 15 Z M 8.800781 15 "/>
<path style=" stroke:none;fill-rule:evenodd;fill:rgb(0%,0%,0%);fill-opacity:1;" d="M 32.800781 7 C 32.800781 4.601562 29.199219 4.601562 29.199219 7 C 29.199219 9.398438 32.800781 9.398438 32.800781 7 Z M 32.800781 7 "/>
<path style=" stroke:none;fill-rule:evenodd;fill:rgb(0%,0%,0%);fill-opacity:1;" d="M 40.800781 15 C 40.800781 12.601562 37.199219 12.601562 37.199219 15 C 37.199219 17.398438 40.800781 17.398438 40.800781 15 Z M 40.800781 15 "/>
<path style=" stroke:none;fill-rule:evenodd;fill:rgb(0%,0%,0%);fill-opacity:1;" d="M 40.800781 31 C 40.800781 28.601562 37.199219 28.601562 37.199219 31 C 37.199219 33.398438 40.800781 33.398438 40.800781 31 Z M 40.800781 31 "/>
<path style=" stroke:none;fill-rule:evenodd;fill:rgb(0%,0%,0%);fill-opacity:1;" d="M 32.800781 39 C 32.800781 36.601562 29.199219 36.601562 29.199219 39 C 29.199219 41.398438 32.800781 41.398438 32.800781 39 Z M 32.800781 39 "/>
<path style=" stroke:none;fill-rule:evenodd;fill:rgb(0%,0%,0%);fill-opacity:1;" d="M 16.800781 39 C 16.800781 36.601562 13.199219 36.601562 13.199219 39 C 13.199219 41.398438 16.800781 41.398438 16.800781 39 Z M 16.800781 39 "/>
<path style=" stroke:none;fill-rule:evenodd;fill:rgb(0%,0%,0%);fill-opacity:1;" d="M 8.800781 31 C 8.800781 28.601562 5.199219 28.601562 5.199219 31 C 5.199219 33.398438 8.800781 33.398438 8.800781 31 Z M 8.800781 31 "/>
</g>
</svg>
