<?xml version="1.0" encoding="UTF-8"?>
<svg xmlns="http://www.w3.org/2000/svg" xmlns:xlink="http://www.w3.org/1999/xlink" width="45pt" height="45pt" viewBox="0 0 45 45" version="1.1">
<g id="surface1">
<path style=" stroke:none;fill-rule:evenodd;fill:rgb(0%,0%,0%);fill-opacity:1;" d="M 16.800781 7 C 16.800781 4.601562 13.199219 4.601562 13.199219 7 C 13.199219 9.398438 16.800781 9.398438 16.800781 7 Z M 16.800781 7 "/>
<path style=" stroke:none;fill-rule:evenodd;fill:rgb(0%,0%,0%);fill-opacity:1;" d="M 8.800781 15 C 8.800781 12.601562 5.199219 12.601562 5.199219 15 C 5.199219 17.398438 8.800781 17.398438 8.800781 15 Z M 8.800781 15 "/>
<path style=" stroke:none;fill-rule:evenodd;fill:rgb(0%,0%,0%);fill-opacity:1;" d="M 32.800781 7 C 32.800781 4.601562 29.199219 4.601562 29.199219 7 C 29.199219 9.398438 32.800781 9.398438 32.800781 7 Z M 32.800781 7 "/>
<path style=" stroke:none;fill-rule:evenodd;fill:rgb(0%,0%,0%);fill-opacity:1;" d="M 40.800781 15 C 40.800781 12.601562 37.199219 12.601562 37.199219 15 C 37.199219 17.398438 40.800781 17.398438 40.800781 15 Z M 40.800781 15 "/>
<path style=" stroke:none;fill-rule:evenodd;fill:rgb(0%,0%,0%);fill-opacity:1;" d="M 40.800781 31 C 40.800781 28.601562 37.199219 28.601562 37.199219 31 C 37.199219 33.398438 40.800781 33.398438 40.800781 31 Z M 40.800781 31 "/>
<path style=" stroke:none;fill-rule:evenodd;fill:rgb(0%,0%,0%);fill-opacity:1;" d="M 32.800781 39 C 32.800781 36.601562 29.199219 36.601562 29.199219 39 C 29.199219 41.398438 32.800781 41.398438 32.800781 39 Z M 32.800781 39 "/>
<path style=" stroke:none;fill-rule:evenodd;fill:rgb(0%,0%,0%);fill-opacity:1;" d="M 16.800781 39 C 16.800781 36.601562 13.199219 36.601562 13.199219 39 C 13.199219 41.398438 16.800781 41.398438 16.800781 39 Z M 16.800781 39 "/>
<path style=" stroke:none;fill-rule:evenodd;fill:rgb(0%,0%,0%);fill-opacity:1;" d="M 8.800781 31 C 8.800781 28.601562 5.199219 28.601562 5.199219 31 C 5.199219 33.398438 8.800781 33.398438 8.800781 31 Z M 8.800781 31 "/>
<path style="fill:none;stroke-width:0.4;stroke-linecap:butt;stroke-linejoin:round;stroke:rgb(0%,0%,0%);stroke-opacity:1;stroke-miterlimit:10;" d="M 168 736 C 169.144531 740 169.714844 738 170.191406 736.332031 C 170.667969 734.667969 171.046875 733.332031 171.429688 733.332031 C 171.808594 733.332031 172.191406 734.667969 172.570312 736 C 172.953125 737.332031 173.332031 738.667969 173.714844 738.667969 C 174.09375 738.667969 174.476562 737.332031 174.855469 736 C 175.238281 734.667969 175.617188 733.332031 176 733.332031 C 176.382812 733.332031 176.761719 734.667969 177.144531 736 C 177.523438 737.332031 177.90625 738.667969 178.285156 738.667969 C 178.667969 738.667969 179.046875 737.332031 179.429688 736 C 179.808594 734.667969 180.191406 733.332031 180.570312 733.332031 C 180.953125 733.332031 181.332031 734.667969 181.808594 736.332031 C 182.285156 738 182.855469 740 184 736 " transform="matrix(1,0,0,-1,-153,743)"/>
<path style="fill:none;stroke-width:0.4;stroke-linecap:butt;stroke-linejoin:round;stroke:rgb(0%,0%,0%);stroke-opacity:1;stroke-miterlimit:10;" d="M 168 704 C 169.144531 700 169.714844 702 170.191406 703.667969 C 170.667969 705.332031 171.046875 706.667969 171.429688 706.667969 C 171.808594 706.667969 172.191406 705.332031 172.570312 704 C 172.953125 702.667969 173.332031 701.332031 173.714844 701.332031 C 174.09375 701.332031 174.476562 702.667969 174.855469 704 C 175.238281 705.332031 175.617188 706.667969 176 706.667969 C 176.382812 706.667969 176.761719 705.332031 177.144531 704 C 177.523438 702.667969 177.90625 701.332031 178.285156 701.332031 C 178.667969 701.332031 179.046875 702.667969 179.429688 704 C 179.808594 705.332031 180.191406 706.667969 180.570312 706.667969 C 180.953125 706.667969 181.332031 705.332031 181.808594 703.667969 C 182.285156 702 182.855469 700 184 704 " transform="matrix(1,0,0,-1,-153,743)"/>
<path style="fill:none;stroke-width:0.4;stroke-linecap:butt;stroke-linejoin:round;stroke:rgb(0%,0%,0%);stroke-opacity:1;stroke-miterlimit:10;" d="M 160 728 C 156 726.859375 158 726.285156 159.667969 725.808594 C 161.335938 725.332031 162.667969 724.953125 162.667969 724.570312 C 162.667969 724.191406 161.335938 723.808594 160 723.429688 C 158.667969 723.046875 157.332031 722.667969 157.332031 722.285156 C 157.332031 721.90625 158.667969 721.523438 160 721.144531 C 161.332031 720.761719 162.667969 720.382812 162.667969 720 C 162.667969 719.621094 161.332031 719.238281 160 718.859375 C 158.667969 718.476562 157.332031 718.09375 157.332031 717.714844 C 157.332031 717.332031 158.667969 716.953125 160 716.570312 C 161.332031 716.191406 162.667969 715.808594 162.667969 715.429688 C 162.667969 715.046875 161.332031 714.667969 159.667969 714.191406 C 158 713.714844 156 713.144531 160 712 " transform="matrix(1,0,0,-1,-153,743)"/>
<path style="fill:none;stroke-width:0.4;stroke-linecap:butt;stroke-linejoin:round;stroke:rgb(0%,0%,0%);stroke-opacity:1;stroke-miterlimit:10;" d="M 192 728 C 196 726.859375 194 726.285156 192.332031 725.808594 C 190.667969 725.332031 189.332031 724.953125 189.332031 724.570312 C 189.332031 724.191406 190.667969 723.808594 192 723.429688 C 193.332031 723.046875 194.667969 722.667969 194.667969 722.285156 C 194.667969 721.90625 193.332031 721.523438 192 721.144531 C 190.667969 720.761719 189.332031 720.382812 189.332031 720 C 189.332031 719.621094 190.667969 719.238281 192 718.859375 C 193.332031 718.476562 194.667969 718.09375 194.667969 717.714844 C 194.667969 717.332031 193.332031 716.953125 192 716.570312 C 190.667969 716.191406 189.332031 715.808594 189.332031 715.429688 C 189.332031 715.046875 190.667969 714.667969 192.332031 714.191406 C 194 713.714844 196 713.144531 192 712 " transform="matrix(1,0,0,-1,-153,743)"/>
</g>
</svg>
