<?xml version="1.0" encoding="UTF-8"?>
<svg xmlns="http://www.w3.org/2000/svg" xmlns:xlink="http://www.w3.org/1999/xlink" width="62pt" height="35pt" viewBox="0 0 62 35" version="1.1">
<g id="surface1">
<path style="fill-rule:evenodd;fill:rgb(56.5%,10.2%,11.8%);fill-opacity:1;stroke-width:0.8;stroke-linecap:butt;stroke-linejoin:round;stroke:rgb(0%,0%,0%);stroke-opacity:1;stroke-miterlimit:10;" d="M 149.65625 720 C 149.65625 723.125 147.125 725.65625 144 725.65625 C 140.875 725.65625 138.34375 723.125 138.34375 720 C 138.34375 716.875 140.875 714.34375 144 714.34375 C 147.125 714.34375 149.65625 716.875 149.65625 720 Z M 149.65625 720 " transform="matrix(1,0,0,-1,-137,743)"/>
<path style="fill-rule:evenodd;fill:rgb(56.5%,10.2%,11.8%);fill-opacity:1;stroke-width:0.8;stroke-linecap:butt;stroke-linejoin:round;stroke:rgb(0%,0%,0%);stroke-opacity:1;stroke-miterlimit:10;" d="M 165.65625 736 C 165.65625 739.125 163.125 741.65625 160 741.65625 C 156.875 741.65625 154.34375 739.125 154.34375 736 C 154.34375 732.875 156.875 730.34375 160 730.34375 C 163.125 730.34375 165.65625 732.875 165.65625 736 Z M 165.65625 736 " transform="matrix(1,0,0,-1,-137,743)"/>
<path style="fill-rule:evenodd;fill:rgb(56.5%,10.2%,11.8%);fill-opacity:1;stroke-width:0.8;stroke-linecap:butt;stroke-linejoin:round;stroke:rgb(0%,0%,0%);stroke-opacity:1;stroke-miterlimit:10;" d="M 197.65625 736 C 197.65625 739.125 195.125 741.65625 192 741.65625 C 188.875 741.65625 186.34375 739.125 186.34375 736 C 186.34375 732.875 188.875 730.34375 192 730.34375 C 195.125 730.34375 197.65625 732.875 197.65625 736 Z M 197.65625 736 " transform="matrix(1,0,0,-1,-137,743)"/>
<path style="fill-rule:evenodd;fill:rgb(56.5%,10.2%,11.8%);fill-opacity:1;stroke-width:0.8;stroke-linecap:butt;stroke-linejoin:round;stroke:rgb(0%,0%,0%);stroke-opacity:1;stroke-miterlimit:10;" d="M 181.65625 720 C 181.65625 723.125 179.125 725.65625 176 725.65625 C 172.875 725.65625 170.34375 723.125 170.34375 720 C 170.34375 716.875 172.875 714.34375 176 714.34375 C 179.125 714.34375 181.65625 716.875 181.65625 720 Z M 181.65625 720 " transform="matrix(1,0,0,-1,-137,743)"/>
<path style="fill-rule:evenodd;fill:rgb(56.5%,10.2%,11.8%);fill-opacity:1;stroke-width:0.8;stroke-linecap:butt;stroke-linejoin:round;stroke:rgb(0%,0%,0%);stroke-opacity:1;stroke-miterlimit:10;" d="M 144 708 L 143.957031 714.34375 " transform="matrix(1,0,0,-1,-137,743)"/>
<path style="fill-rule:evenodd;fill:rgb(56.5%,10.2%,11.8%);fill-opacity:1;stroke-width:0.8;stroke-linecap:butt;stroke-linejoin:round;stroke:rgb(0%,0%,0%);stroke-opacity:1;stroke-miterlimit:10;" d="M 176 708 L 175.953125 714.34375 " transform="matrix(1,0,0,-1,-137,743)"/>
<path style="fill-rule:evenodd;fill:rgb(56.5%,10.2%,11.8%);fill-opacity:1;stroke-width:0.8;stroke-linecap:butt;stroke-linejoin:round;stroke:rgb(0%,0%,0%);stroke-opacity:1;stroke-miterlimit:10;" d="M 160 724 L 159.953125 730.34375 " transform="matrix(1,0,0,-1,-137,743)"/>
<path style="fill-rule:evenodd;fill:rgb(56.5%,10.2%,11.8%);fill-opacity:1;stroke-width:0.8;stroke-linecap:butt;stroke-linejoin:round;stroke:rgb(0%,0%,0%);stroke-opacity:1;stroke-miterlimit:10;" d="M 192 724 L 191.949219 730.34375 " transform="matrix(1,0,0,-1,-137,743)"/>
<path style="fill-rule:evenodd;fill:rgb(56.5%,10.2%,11.8%);fill-opacity:1;stroke-width:0.8;stroke-linecap:butt;stroke-linejoin:round;stroke:rgb(0%,0%,0%);stroke-opacity:1;stroke-miterlimit:10;" d="M 148 724 L 156 732 " transform="matrix(1,0,0,-1,-137,743)"/>
<path style="fill-rule:evenodd;fill:rgb(56.5%,10.2%,11.8%);fill-opacity:1;stroke-width:0.8;stroke-linecap:butt;stroke-linejoin:round;stroke:rgb(0%,0%,0%);stroke-opacity:1;stroke-miterlimit:10;" d="M 180 724 L 188 732 " transform="matrix(1,0,0,-1,-137,743)"/>
<path style="fill:none;stroke-width:0.8;stroke-linecap:butt;stroke-linejoin:round;stroke:rgb(0%,0%,0%);stroke-opacity:1;stroke-miterlimit:10;" d="M 165.65625 736 L 186.34375 736 " transform="matrix(1,0,0,-1,-137,743)"/>
<path style="fill:none;stroke-width:0.8;stroke-linecap:butt;stroke-linejoin:round;stroke:rgb(0%,0%,0%);stroke-opacity:1;stroke-miterlimit:10;" d="M 149.65625 720 L 170.34375 720 " transform="matrix(1,0,0,-1,-137,743)"/>
</g>
</svg>
